<?xml version="1.0" encoding="UTF-8"?>
<svg enable-background="new 0 0 512 512" version="1.1" viewBox="0 0 512 512" xml:space="preserve" xmlns="http://www.w3.org/2000/svg">
<path d="m492.76 190.24-160.97-14.929-63.941-148.48c-4.477-10.396-19.218-10.396-23.694 0l-63.941 148.48-160.97 14.929c-11.271 1.045-15.826 15.064-7.322 22.534l121.45 106.69-35.545 157.71c-2.489 11.042 9.436 19.707 19.169 13.927l139-82.537 139 82.537c9.732 5.78 21.659-2.885 19.17-13.927l-35.544-157.7 121.45-106.69c8.505-7.47 3.951-21.489-7.321-22.534z" fill="#FFDC64"/>
	<path d="m267.85 26.833c-4.477-10.396-19.218-10.396-23.694 0l-63.941 148.48-160.97 14.929c-11.271 1.045-15.826 15.064-7.322 22.534l121.45 106.69-35.545 157.71c-2.489 11.042 9.436 19.707 19.169 13.927l31.024-18.422c4.294-176.75 86.42-301.22 151.44-372.43l-31.615-73.415z" fill="#FFC850"/>
	<path d="m510.97 196.78c-2.56-7.875-9.271-13.243-17.518-14.008l-156.54-14.518-31.029-72.054c-1.639-3.804-6.049-5.562-9.854-3.922-3.804 1.638-5.56 6.05-3.922 9.853l32.791 76.144c1.086 2.521 3.463 4.248 6.196 4.501l160.97 14.929c3.194 0.296 4.307 2.692 4.638 3.708 0.33 1.016 0.838 3.608-1.572 5.725l-121.45 106.7c-2.063 1.812-2.97 4.605-2.366 7.283l35.545 157.7c0.705 3.13-1.229 4.929-2.095 5.557-0.864 0.628-3.17 1.915-5.931 0.274l-139-82.537c-2.359-1.4-5.299-1.4-7.657 0l-139 82.537c-2.76 1.642-5.066 0.354-5.931-0.274s-2.8-2.427-2.095-5.556l18.348-81.406c0.911-4.041-1.627-8.055-5.667-8.965-4.047-0.91-8.054 1.627-8.965 5.667l-18.348 81.407c-1.82 8.078 1.211 16.12 7.91 20.988 6.699 4.866 15.285 5.265 22.403 1.037l135.17-80.264 135.17 80.264c3.28 1.947 6.87 2.913 10.443 2.913 4.185 0 8.347-1.325 11.96-3.95 6.7-4.868 9.73-12.909 7.91-20.989l-34.565-153.36 118.11-103.75c6.222-5.466 8.496-13.753 5.938-21.629z"/>
	<path d="m116.08 362.06c-0.911 4.041 1.627 8.055 5.667 8.965 0.556 0.125 1.11 0.186 1.656 0.186 3.43 0 6.524-2.367 7.309-5.853l9.97-44.237c0.604-2.679-0.304-5.473-2.366-7.283l-121.45-106.69c-2.41-2.117-1.902-4.709-1.571-5.725 0.33-1.016 1.442-3.412 4.637-3.708l160.97-14.929c2.733-0.253 5.11-1.98 6.196-4.501l63.94-148.48c1.269-2.946 3.891-3.265 4.959-3.265 1.069 0 3.691 0.318 4.96 3.264l17.367 40.327c1.64 3.804 6.05 5.561 9.854 3.922 3.804-1.638 5.56-6.05 3.922-9.853l-17.367-40.328c-3.276-7.605-10.454-12.33-18.736-12.33-8.28 0-15.459 4.725-18.735 12.331l-62.18 144.39-156.53 14.516c-8.245 0.765-14.958 6.132-17.518 14.008-2.559 7.875-0.284 16.163 5.938 21.629l118.11 103.76-8.992 39.892z"/>
</svg>
